<svg xmlns="http://www.w3.org/2000/svg" xmlns:xlink="http://www.w3.org/1999/xlink" width="250" zoomAndPan="magnify" viewBox="0 0 187.5 60" height="80" preserveAspectRatio="xMidYMid meet" version="1.0"><defs><g/><clipPath id="e0ac568462"><path d="M 79.628906 16.722656 L 91.347656 16.722656 L 91.347656 23.136719 L 79.628906 23.136719 Z M 79.628906 16.722656 " clip-rule="nonzero"/></clipPath><clipPath id="87171f777c"><path d="M 85.488281 25.125 L 106.742188 25.125 L 106.742188 45.660156 L 85.488281 45.660156 Z M 85.488281 25.125 " clip-rule="nonzero"/></clipPath><clipPath id="332f2000d3"><path d="M 96.101562 25.125 C 90.238281 25.125 85.488281 29.722656 85.488281 35.390625 C 85.488281 41.0625 90.238281 45.660156 96.101562 45.660156 C 101.964844 45.660156 106.71875 41.0625 106.71875 35.390625 C 106.71875 29.722656 101.964844 25.125 96.101562 25.125 Z M 96.101562 25.125 " clip-rule="nonzero"/></clipPath><clipPath id="820b3c7f36"><path d="M 88.367188 33 L 93 33 L 93 38 L 88.367188 38 Z M 88.367188 33 " clip-rule="nonzero"/></clipPath><clipPath id="faa23b1dce"><path d="M 94 27.640625 L 99 27.640625 L 99 32 L 94 32 Z M 94 27.640625 " clip-rule="nonzero"/></clipPath><clipPath id="356874b98c"><path d="M 96 36 L 103.328125 36 L 103.328125 42.601562 L 96 42.601562 Z M 96 36 " clip-rule="nonzero"/></clipPath></defs><g clip-path="url(#e0ac568462)"><path fill="#ffffff" d="M 79.628906 16.722656 L 91.347656 16.722656 L 91.347656 23.136719 L 79.628906 23.136719 Z M 79.628906 16.722656 " fill-opacity="1" fill-rule="nonzero"/></g><g fill="#2563eb" fill-opacity="1"><g transform="translate(0.91884, 45.528339)"><g><path d="M 9.59375 -28.828125 C 11.550781 -28.828125 13.191406 -28.523438 14.515625 -27.921875 C 15.835938 -27.316406 16.816406 -26.492188 17.453125 -25.453125 C 18.097656 -24.410156 18.421875 -23.191406 18.421875 -21.796875 C 18.421875 -20.515625 18.113281 -19.347656 17.5 -18.296875 C 16.882812 -17.253906 15.960938 -16.398438 14.734375 -15.734375 C 18.773438 -14.367188 20.796875 -11.878906 20.796875 -8.265625 C 20.796875 -6.796875 20.425781 -5.429688 19.6875 -4.171875 C 18.945312 -2.910156 17.867188 -1.898438 16.453125 -1.140625 C 15.035156 -0.378906 13.351562 0 11.40625 0 L 3.5 0 L 3.5 -28.828125 Z M 8.3125 -16.734375 C 10.5625 -16.734375 12.304688 -17.140625 13.546875 -17.953125 C 14.785156 -18.773438 15.40625 -20.054688 15.40625 -21.796875 C 15.40625 -23.078125 14.941406 -24.097656 14.015625 -24.859375 C 13.097656 -25.628906 11.8125 -26.015625 10.15625 -26.015625 L 6.375 -26.015625 L 6.375 -16.734375 Z M 10.84375 -2.8125 C 12.394531 -2.8125 13.691406 -3.054688 14.734375 -3.546875 C 15.773438 -4.046875 16.539062 -4.707031 17.03125 -5.53125 C 17.53125 -6.363281 17.78125 -7.265625 17.78125 -8.234375 C 17.78125 -9.429688 17.453125 -10.457031 16.796875 -11.3125 C 16.140625 -12.175781 15.179688 -12.828125 13.921875 -13.265625 C 12.671875 -13.703125 11.160156 -13.921875 9.390625 -13.921875 L 6.375 -13.921875 L 6.375 -2.8125 Z M 10.84375 -2.8125 "/></g></g></g><g fill="#2563eb" fill-opacity="1"><g transform="translate(23.881333, 45.528339)"><g><path d="M 4.421875 -25.5625 C 3.804688 -25.5625 3.273438 -25.789062 2.828125 -26.25 C 2.390625 -26.707031 2.171875 -27.242188 2.171875 -27.859375 C 2.171875 -28.503906 2.390625 -29.039062 2.828125 -29.46875 C 3.273438 -29.894531 3.804688 -30.109375 4.421875 -30.109375 C 5.035156 -30.109375 5.566406 -29.882812 6.015625 -29.4375 C 6.472656 -29 6.703125 -28.472656 6.703125 -27.859375 C 6.703125 -27.242188 6.472656 -26.707031 6.015625 -26.25 C 5.566406 -25.789062 5.035156 -25.5625 4.421875 -25.5625 Z M 3.09375 -21.3125 L 5.828125 -21.3125 L 5.828125 0 L 3.09375 0 Z M 3.09375 -21.3125 "/></g></g></g><g fill="#2563eb" fill-opacity="1"><g transform="translate(32.753206, 45.528339)"><g><path d="M 12.96875 0.515625 C 10.9375 0.515625 9.085938 0.0078125 7.421875 -1 C 5.765625 -2.019531 4.453125 -3.390625 3.484375 -5.109375 C 2.523438 -6.835938 2.046875 -8.707031 2.046875 -10.71875 C 2.046875 -12.726562 2.535156 -14.582031 3.515625 -16.28125 C 4.492188 -17.976562 5.820312 -19.332031 7.5 -20.34375 C 9.1875 -21.363281 11.035156 -21.875 13.046875 -21.875 C 14.785156 -21.875 16.375 -21.5 17.8125 -20.75 C 19.257812 -20 20.507812 -18.890625 21.5625 -17.421875 L 21.5625 -29.546875 L 24.28125 -29.546875 L 24.28125 0 L 21.5625 0 L 21.5625 -3.65625 C 20.40625 -2.257812 19.101562 -1.210938 17.65625 -0.515625 C 16.21875 0.171875 14.65625 0.515625 12.96875 0.515625 Z M 13.25 -1.96875 C 14.71875 -1.96875 16.097656 -2.320312 17.390625 -3.03125 C 18.691406 -3.738281 19.738281 -4.738281 20.53125 -6.03125 C 21.320312 -7.332031 21.71875 -8.84375 21.71875 -10.5625 C 21.71875 -12.1875 21.347656 -13.65625 20.609375 -14.96875 C 19.878906 -16.28125 18.867188 -17.316406 17.578125 -18.078125 C 16.296875 -18.847656 14.863281 -19.234375 13.28125 -19.234375 C 11.707031 -19.234375 10.269531 -18.835938 8.96875 -18.046875 C 7.675781 -17.253906 6.664062 -16.203125 5.9375 -14.890625 C 5.21875 -13.578125 4.859375 -12.160156 4.859375 -10.640625 C 4.859375 -9.109375 5.222656 -7.679688 5.953125 -6.359375 C 6.691406 -5.035156 7.703125 -3.972656 8.984375 -3.171875 C 10.273438 -2.367188 11.695312 -1.96875 13.25 -1.96875 Z M 13.25 -1.96875 "/></g></g></g><g fill="#2563eb" fill-opacity="1"><g transform="translate(60.251991, 45.528339)"><g><path d="M 9.59375 -28.828125 C 11.550781 -28.828125 13.191406 -28.523438 14.515625 -27.921875 C 15.835938 -27.316406 16.816406 -26.492188 17.453125 -25.453125 C 18.097656 -24.410156 18.421875 -23.191406 18.421875 -21.796875 C 18.421875 -20.515625 18.113281 -19.347656 17.5 -18.296875 C 16.882812 -17.253906 15.960938 -16.398438 14.734375 -15.734375 C 18.773438 -14.367188 20.796875 -11.878906 20.796875 -8.265625 C 20.796875 -6.796875 20.425781 -5.429688 19.6875 -4.171875 C 18.945312 -2.910156 17.867188 -1.898438 16.453125 -1.140625 C 15.035156 -0.378906 13.351562 0 11.40625 0 L 3.5 0 L 3.5 -28.828125 Z M 8.3125 -16.734375 C 10.5625 -16.734375 12.304688 -17.140625 13.546875 -17.953125 C 14.785156 -18.773438 15.40625 -20.054688 15.40625 -21.796875 C 15.40625 -23.078125 14.941406 -24.097656 14.015625 -24.859375 C 13.097656 -25.628906 11.8125 -26.015625 10.15625 -26.015625 L 6.375 -26.015625 L 6.375 -16.734375 Z M 10.84375 -2.8125 C 12.394531 -2.8125 13.691406 -3.054688 14.734375 -3.546875 C 15.773438 -4.046875 16.539062 -4.707031 17.03125 -5.53125 C 17.53125 -6.363281 17.78125 -7.265625 17.78125 -8.234375 C 17.78125 -9.429688 17.453125 -10.457031 16.796875 -11.3125 C 16.140625 -12.175781 15.179688 -12.828125 13.921875 -13.265625 C 12.671875 -13.703125 11.160156 -13.921875 9.390625 -13.921875 L 6.375 -13.921875 L 6.375 -2.8125 Z M 10.84375 -2.8125 "/></g></g></g><g fill="#2563eb" fill-opacity="1"><g transform="translate(83.214484, 45.528339)"><g><path d="M 13.171875 0.5625 C 11.078125 0.5625 9.179688 0.0625 7.484375 -0.9375 C 5.785156 -1.945312 4.453125 -3.304688 3.484375 -5.015625 C 2.523438 -6.734375 2.046875 -8.59375 2.046875 -10.59375 C 2.046875 -12.601562 2.523438 -14.476562 3.484375 -16.21875 C 4.453125 -17.957031 5.785156 -19.332031 7.484375 -20.34375 C 9.179688 -21.363281 11.078125 -21.875 13.171875 -21.875 C 15.253906 -21.875 17.144531 -21.363281 18.84375 -20.34375 C 20.539062 -19.332031 21.867188 -17.957031 22.828125 -16.21875 C 23.796875 -14.476562 24.28125 -12.601562 24.28125 -10.59375 C 24.28125 -8.59375 23.796875 -6.734375 22.828125 -5.015625 C 21.867188 -3.304688 20.539062 -1.945312 18.84375 -0.9375 C 17.144531 0.0625 15.253906 0.5625 13.171875 0.5625 Z M 13.171875 -2.09375 C 14.722656 -2.09375 16.132812 -2.472656 17.40625 -3.234375 C 18.675781 -3.992188 19.671875 -5.019531 20.390625 -6.3125 C 21.109375 -7.613281 21.46875 -9.03125 21.46875 -10.5625 C 21.46875 -12.113281 21.09375 -13.550781 20.34375 -14.875 C 19.601562 -16.195312 18.59375 -17.253906 17.3125 -18.046875 C 16.039062 -18.835938 14.660156 -19.234375 13.171875 -19.234375 C 11.671875 -19.234375 10.285156 -18.835938 9.015625 -18.046875 C 7.742188 -17.253906 6.734375 -16.195312 5.984375 -14.875 C 5.234375 -13.550781 4.859375 -12.113281 4.859375 -10.5625 C 4.859375 -9.007812 5.21875 -7.585938 5.9375 -6.296875 C 6.664062 -5.015625 7.65625 -3.992188 8.90625 -3.234375 C 10.164062 -2.472656 11.585938 -2.09375 13.171875 -2.09375 Z M 13.171875 -2.09375 "/></g></g></g><g fill="#2563eb" fill-opacity="1"><g transform="translate(109.50895, 45.528339)"><g><path d="M 12.078125 0.515625 C 9.003906 0.515625 6.671875 -0.390625 5.078125 -2.203125 C 3.484375 -4.023438 2.6875 -6.71875 2.6875 -10.28125 L 2.6875 -21.3125 L 5.578125 -21.3125 L 5.578125 -9.15625 C 5.578125 -6.820312 6.148438 -5.066406 7.296875 -3.890625 C 8.453125 -2.710938 10.046875 -2.125 12.078125 -2.125 C 13.492188 -2.125 14.679688 -2.410156 15.640625 -2.984375 C 16.609375 -3.566406 17.332031 -4.367188 17.8125 -5.390625 C 18.300781 -6.421875 18.546875 -7.609375 18.546875 -8.953125 L 18.546875 -21.3125 L 21.4375 -21.3125 L 21.4375 -10.28125 C 21.4375 -6.6875 20.644531 -3.988281 19.0625 -2.1875 C 17.488281 -0.382812 15.160156 0.515625 12.078125 0.515625 Z M 12.078125 0.515625 "/></g></g></g><g fill="#2563eb" fill-opacity="1"><g transform="translate(133.91664, 45.528339)"><g><path d="M 5.9375 -21.3125 L 5.9375 -17.5 C 8.15625 -20.414062 10.816406 -21.875 13.921875 -21.875 C 15.503906 -21.875 16.890625 -21.503906 18.078125 -20.765625 C 19.273438 -20.035156 20.203125 -18.925781 20.859375 -17.4375 C 21.515625 -15.957031 21.84375 -14.132812 21.84375 -11.96875 L 21.84375 0 L 19.109375 0 L 19.109375 -11.59375 C 19.109375 -14.195312 18.660156 -16.144531 17.765625 -17.4375 C 16.867188 -18.738281 15.414062 -19.390625 13.40625 -19.390625 C 12.09375 -19.390625 10.867188 -19.023438 9.734375 -18.296875 C 8.597656 -17.578125 7.679688 -16.523438 6.984375 -15.140625 C 6.285156 -13.765625 5.9375 -12.128906 5.9375 -10.234375 L 5.9375 0 L 3.21875 0 L 3.21875 -21.3125 Z M 5.9375 -21.3125 "/></g></g></g><g fill="#2563eb" fill-opacity="1"><g transform="translate(158.565196, 45.528339)"><g><path d="M 12.96875 0.515625 C 10.9375 0.515625 9.085938 0.0078125 7.421875 -1 C 5.765625 -2.019531 4.453125 -3.390625 3.484375 -5.109375 C 2.523438 -6.835938 2.046875 -8.707031 2.046875 -10.71875 C 2.046875 -12.726562 2.535156 -14.582031 3.515625 -16.28125 C 4.492188 -17.976562 5.820312 -19.332031 7.5 -20.34375 C 9.1875 -21.363281 11.035156 -21.875 13.046875 -21.875 C 14.785156 -21.875 16.375 -21.5 17.8125 -20.75 C 19.257812 -20 20.507812 -18.890625 21.5625 -17.421875 L 21.5625 -29.546875 L 24.28125 -29.546875 L 24.28125 0 L 21.5625 0 L 21.5625 -3.65625 C 20.40625 -2.257812 19.101562 -1.210938 17.65625 -0.515625 C 16.21875 0.171875 14.65625 0.515625 12.96875 0.515625 Z M 13.25 -1.96875 C 14.71875 -1.96875 16.097656 -2.320312 17.390625 -3.03125 C 18.691406 -3.738281 19.738281 -4.738281 20.53125 -6.03125 C 21.320312 -7.332031 21.71875 -8.84375 21.71875 -10.5625 C 21.71875 -12.1875 21.347656 -13.65625 20.609375 -14.96875 C 19.878906 -16.28125 18.867188 -17.316406 17.578125 -18.078125 C 16.296875 -18.847656 14.863281 -19.234375 13.28125 -19.234375 C 11.707031 -19.234375 10.269531 -18.835938 8.96875 -18.046875 C 7.675781 -17.253906 6.664062 -16.203125 5.9375 -14.890625 C 5.21875 -13.578125 4.859375 -12.160156 4.859375 -10.640625 C 4.859375 -9.109375 5.222656 -7.679688 5.953125 -6.359375 C 6.691406 -5.035156 7.703125 -3.972656 8.984375 -3.171875 C 10.273438 -2.367188 11.695312 -1.96875 13.25 -1.96875 Z M 13.25 -1.96875 "/></g></g></g><g clip-path="url(#87171f777c)"><g clip-path="url(#332f2000d3)"><path fill="#2563eb" d="M 85.488281 25.125 L 106.742188 25.125 L 106.742188 45.660156 L 85.488281 45.660156 Z M 85.488281 25.125 " fill-opacity="1" fill-rule="nonzero"/></g></g><path fill="#ffffff" d="M 96.441406 32.386719 L 93.5625 29.511719 L 90.25 32.824219 L 93.128906 35.699219 Z M 96.441406 32.386719 " fill-opacity="1" fill-rule="nonzero"/><g clip-path="url(#820b3c7f36)"><path fill="#ffffff" d="M 92.0625 36.933594 L 88.945312 33.816406 C 88.898438 33.769531 88.835938 33.746094 88.777344 33.746094 C 88.714844 33.746094 88.652344 33.769531 88.605469 33.816406 L 88.464844 33.960938 C 88.371094 34.054688 88.371094 34.207031 88.464844 34.296875 L 91.652344 37.488281 C 91.746094 37.582031 91.898438 37.582031 91.992188 37.488281 L 92.136719 37.34375 C 92.230469 37.25 92.230469 37.101562 92.136719 37.007812 Z M 92.0625 36.933594 " fill-opacity="1" fill-rule="nonzero"/></g><path fill="#ffffff" d="M 89.273438 33.800781 L 90.082031 32.992188 L 92.957031 35.871094 L 92.148438 36.679688 Z M 89.273438 33.800781 " fill-opacity="1" fill-rule="nonzero"/><g clip-path="url(#faa23b1dce)"><path fill="#ffffff" d="M 94.628906 28.277344 L 97.746094 31.394531 C 97.839844 31.488281 97.992188 31.488281 98.085938 31.394531 L 98.230469 31.253906 C 98.324219 31.160156 98.324219 31.007812 98.230469 30.914062 L 95.039062 27.722656 C 94.992188 27.675781 94.929688 27.652344 94.871094 27.652344 C 94.808594 27.652344 94.746094 27.675781 94.699219 27.722656 L 94.554688 27.867188 C 94.460938 27.960938 94.460938 28.113281 94.554688 28.207031 Z M 94.628906 28.277344 " fill-opacity="1" fill-rule="nonzero"/></g><path fill="#ffffff" d="M 93.734375 29.34375 L 94.542969 28.53125 L 97.417969 31.410156 L 96.609375 32.21875 Z M 93.734375 29.34375 " fill-opacity="1" fill-rule="nonzero"/><path fill="#ffffff" d="M 97.542969 37.285156 L 98.023438 36.800781 L 98.179688 36.957031 L 97.699219 37.441406 Z M 97.542969 37.285156 " fill-opacity="1" fill-rule="nonzero"/><g clip-path="url(#356874b98c)"><path fill="#ffffff" d="M 102.835938 40.960938 L 98.023438 36.148438 L 96.890625 37.285156 L 101.699219 42.097656 C 101.851562 42.246094 102.054688 42.332031 102.269531 42.332031 C 102.484375 42.332031 102.683594 42.246094 102.835938 42.097656 C 102.988281 41.945312 103.070312 41.742188 103.070312 41.527344 C 103.070312 41.3125 102.988281 41.113281 102.835938 40.960938 Z M 98.4375 37.042969 L 97.785156 37.695312 C 97.761719 37.71875 97.730469 37.730469 97.699219 37.730469 C 97.667969 37.730469 97.636719 37.71875 97.613281 37.695312 L 97.285156 37.371094 C 97.238281 37.324219 97.238281 37.246094 97.285156 37.199219 L 97.941406 36.546875 C 97.988281 36.5 98.0625 36.5 98.109375 36.546875 L 98.4375 36.875 C 98.484375 36.921875 98.484375 36.996094 98.4375 37.042969 Z M 102.59375 41.855469 C 102.453125 41.996094 102.238281 42.039062 102.050781 41.964844 C 101.941406 41.855469 101.832031 41.746094 101.722656 41.636719 L 102.378906 40.984375 L 102.703125 41.3125 C 102.78125 41.496094 102.738281 41.710938 102.59375 41.855469 Z M 102.59375 41.855469 " fill-opacity="1" fill-rule="nonzero"/></g><path fill="#ffffff" d="M 94.605469 34.566406 L 95.304688 33.863281 L 97.636719 36.195312 L 96.9375 36.898438 Z M 94.605469 34.566406 " fill-opacity="1" fill-rule="nonzero"/></svg>